<mxfile host="app.diagrams.net" modified="2023-10-06T08:59:41.021Z" agent="Mozilla/5.0 (Windows NT 10.0; Win64; x64) AppleWebKit/537.36 (KHTML, like Gecko) Chrome/117.0.0.0 Safari/537.36 Edg/117.0.2045.43" etag="yo0uG3ysru-dl2SWyg7r" version="22.0.3" type="device">
  <diagram id="4gunxGNcOqAKrQzBJDMx" name="Page-1">
    <mxGraphModel dx="1124" dy="2000" grid="1" gridSize="10" guides="1" tooltips="1" connect="1" arrows="1" fold="1" page="1" pageScale="1" pageWidth="827" pageHeight="1169" math="0" shadow="0">
      <root>
        <mxCell id="0" />
        <mxCell id="1" parent="0" />
        <mxCell id="l3Uu0-RZ_nudHO4pfUp--7" value="" style="group" parent="1" vertex="1" connectable="0">
          <mxGeometry x="280" y="410" width="255" height="120" as="geometry" />
        </mxCell>
        <mxCell id="l3Uu0-RZ_nudHO4pfUp--6" value="" style="ellipse;whiteSpace=wrap;html=1;fillColor=#FFFFFF;" parent="l3Uu0-RZ_nudHO4pfUp--7" vertex="1">
          <mxGeometry width="250" height="120" as="geometry" />
        </mxCell>
        <mxCell id="l3Uu0-RZ_nudHO4pfUp--3" value="" style="verticalLabelPosition=bottom;verticalAlign=top;html=1;shape=mxgraph.basic.pie;startAngle=0.75;endAngle=0.9984085036175459;fillColor=#000000;" parent="l3Uu0-RZ_nudHO4pfUp--7" vertex="1">
          <mxGeometry width="255" height="120" as="geometry" />
        </mxCell>
        <mxCell id="l3Uu0-RZ_nudHO4pfUp--4" value="" style="verticalLabelPosition=bottom;verticalAlign=top;html=1;shape=mxgraph.basic.pie;startAngle=0.75;endAngle=0.9984085036175459;fillColor=#000000;rotation=-180;" parent="l3Uu0-RZ_nudHO4pfUp--7" vertex="1">
          <mxGeometry x="4" width="245" height="120" as="geometry" />
        </mxCell>
        <mxCell id="l3Uu0-RZ_nudHO4pfUp--8" value="" style="endArrow=none;html=1;rounded=0;strokeWidth=12;" parent="1" edge="1">
          <mxGeometry width="50" height="50" relative="1" as="geometry">
            <mxPoint x="404.5" y="470" as="sourcePoint" />
            <mxPoint x="404.5" y="220" as="targetPoint" />
          </mxGeometry>
        </mxCell>
        <mxCell id="l3Uu0-RZ_nudHO4pfUp--9" value="" style="endArrow=none;dashed=1;html=1;rounded=0;strokeWidth=6;strokeColor=#0000FF;" parent="1" edge="1">
          <mxGeometry width="50" height="50" relative="1" as="geometry">
            <mxPoint x="100" y="300" as="sourcePoint" />
            <mxPoint x="740" y="300" as="targetPoint" />
          </mxGeometry>
        </mxCell>
        <mxCell id="l3Uu0-RZ_nudHO4pfUp--10" value="&lt;font style=&quot;font-size: 24px;&quot;&gt;Water Surface&lt;/font&gt;" style="edgeLabel;html=1;align=center;verticalAlign=middle;resizable=0;points=[];fontSize=24;" parent="l3Uu0-RZ_nudHO4pfUp--9" vertex="1" connectable="0">
          <mxGeometry x="0.3032" y="1" relative="1" as="geometry">
            <mxPoint x="-257" y="-19" as="offset" />
          </mxGeometry>
        </mxCell>
        <mxCell id="l3Uu0-RZ_nudHO4pfUp--11" value="" style="shape=curlyBracket;whiteSpace=wrap;html=1;rounded=1;flipH=1;fontSize=16;fillColor=#FFFFFF;" parent="1" vertex="1">
          <mxGeometry x="414" y="310" width="20" height="160" as="geometry" />
        </mxCell>
        <mxCell id="l3Uu0-RZ_nudHO4pfUp--12" value="&lt;p class=&quot;MsoNormal&quot; style=&quot;font-size: 24px;&quot;&gt;&lt;span lang=&quot;EN-US&quot; style=&quot;font-size: 24px;&quot;&gt;&lt;font style=&quot;font-size: 24px;&quot;&gt;Î”z&lt;/font&gt;&lt;/span&gt;&lt;/p&gt;" style="text;html=1;strokeColor=none;fillColor=none;spacing=5;spacingTop=-20;whiteSpace=wrap;overflow=hidden;rounded=0;labelBackgroundColor=none;fontSize=24;" parent="1" vertex="1">
          <mxGeometry x="432" y="363" width="50" height="50" as="geometry" />
        </mxCell>
        <mxCell id="l3Uu0-RZ_nudHO4pfUp--13" value="" style="shape=mxgraph.signs.tech.camera_1;html=1;pointerEvents=1;fillColor=#000000;strokeColor=none;verticalLabelPosition=bottom;verticalAlign=top;align=center;rotation=90;" parent="1" vertex="1">
          <mxGeometry x="358.5" y="20" width="98" height="84" as="geometry" />
        </mxCell>
        <mxCell id="l3Uu0-RZ_nudHO4pfUp--15" value="" style="shape=flexArrow;endArrow=classic;html=1;rounded=0;fontSize=16;strokeColor=#000000;strokeWidth=6;movable=1;resizable=1;rotatable=1;deletable=1;editable=1;connectable=1;entryX=0.819;entryY=0.125;entryDx=0;entryDy=0;entryPerimeter=0;exitX=0.5;exitY=0;exitDx=0;exitDy=0;" parent="1" target="l3Uu0-RZ_nudHO4pfUp--6" edge="1">
          <mxGeometry width="50" height="50" relative="1" as="geometry">
            <mxPoint x="635.453819981703" y="100.50864594297127" as="sourcePoint" />
            <mxPoint x="500" y="390" as="targetPoint" />
          </mxGeometry>
        </mxCell>
        <mxCell id="l3Uu0-RZ_nudHO4pfUp--16" value="" style="endArrow=classic;html=1;rounded=0;entryX=1;entryY=0.5;entryDx=0;entryDy=0;entryPerimeter=0;exitX=0.795;exitY=0.098;exitDx=0;exitDy=0;exitPerimeter=0;" parent="1" source="l3Uu0-RZ_nudHO4pfUp--6" target="l3Uu0-RZ_nudHO4pfUp--13" edge="1">
          <mxGeometry width="50" height="50" relative="1" as="geometry">
            <mxPoint x="450" y="410" as="sourcePoint" />
            <mxPoint x="130" y="480" as="targetPoint" />
          </mxGeometry>
        </mxCell>
        <mxCell id="6c0bV0T6CCxqr7LDbS5O-1" value="" style="shape=mxgraph.signs.nature.sun_2;html=1;pointerEvents=1;fillColor=#000000;strokeColor=none;verticalLabelPosition=bottom;verticalAlign=top;align=center;dashed=1;strokeWidth=3;fontSize=20;" parent="1" vertex="1">
          <mxGeometry x="600" y="-36" width="140" height="140" as="geometry" />
        </mxCell>
      </root>
    </mxGraphModel>
  </diagram>
</mxfile>
